<?xml version="1.0" encoding="UTF-8"?>
<svg id="Layer_2" data-name="Layer 2" xmlns="http://www.w3.org/2000/svg" viewBox="0 0 384.87 187.32">
  <defs>
    <style>
      .cls-1 {
        fill: white;
        stroke-width: 1px;
        stroke: gray;
      }
    </style>
  </defs>
  <g id="Layer_1-2" data-name="Layer 1">
    <g>
      <g>
        <path class="cls-1" d="m13.31,167.89v3.96h-1.41c-.23-.83-.52-1.49-.87-1.98s-.76-.84-1.23-1.05-1.03-.31-1.69-.31c-.98,0-1.85.33-2.62.98-.77.65-1.37,1.63-1.81,2.94-.44,1.31-.66,2.89-.66,4.75s.18,3.46.54,4.78c.36,1.32.89,2.31,1.6,2.98s1.57,1.01,2.6,1.01c.78,0,1.42-.11,1.91-.34.5-.22.91-.58,1.25-1.06s.66-1.2.96-2.14h1.41v4.08c-.9.24-1.81.42-2.75.54-.94.12-1.97.18-3.09.18-2.42,0-4.25-.82-5.48-2.46-1.24-1.64-1.86-4.08-1.86-7.33,0-2.04.32-3.82.96-5.36.64-1.53,1.59-2.72,2.83-3.56,1.25-.84,2.74-1.26,4.47-1.26.87,0,1.67.05,2.4.14.73.09,1.57.26,2.51.51Z"/>
        <path class="cls-1" d="m7.47,187.32c-2.45,0-4.33-.84-5.58-2.51-1.25-1.65-1.88-4.14-1.88-7.4,0-2.04.33-3.86.97-5.4.65-1.55,1.62-2.76,2.88-3.61,1.26-.85,2.79-1.28,4.54-1.28.86,0,1.67.05,2.41.14.74.09,1.59.26,2.53.51l.09.02v4.18h-1.63l-.03-.09c-.22-.81-.51-1.46-.85-1.94-.34-.47-.73-.81-1.18-1.01-.45-.2-1-.3-1.63-.3-.95,0-1.8.32-2.54.95-.75.64-1.34,1.61-1.77,2.89-.43,1.29-.65,2.88-.65,4.71s.18,3.44.54,4.74c.35,1.29.88,2.28,1.56,2.93.68.65,1.52.97,2.51.97.76,0,1.39-.11,1.86-.33.47-.21.87-.55,1.2-1.02.33-.47.65-1.18.95-2.11l.03-.09h1.63v4.3l-.09.03c-.89.24-1.82.42-2.77.54-.94.12-1.98.18-3.11.18Zm.93-19.95c-1.7,0-3.18.42-4.4,1.24s-2.16,2-2.79,3.5c-.63,1.51-.95,3.3-.95,5.31,0,3.2.62,5.64,1.83,7.25,1.21,1.6,3.02,2.41,5.38,2.41,1.11,0,2.15-.06,3.08-.18.9-.11,1.79-.29,2.64-.51v-3.86h-1.2c-.3.91-.62,1.61-.95,2.09-.35.5-.79.88-1.3,1.11-.51.23-1.17.35-1.96.35-1.06,0-1.96-.35-2.69-1.04-.72-.68-1.27-1.71-1.63-3.04-.36-1.32-.55-2.94-.55-4.81s.22-3.47.66-4.79c.44-1.32,1.06-2.33,1.84-3,.79-.67,1.7-1.01,2.7-1.01.67,0,1.25.11,1.74.33.48.22.91.58,1.28,1.09.35.48.64,1.13.86,1.93h1.19v-3.73c-.9-.23-1.7-.39-2.4-.48-.73-.09-1.53-.13-2.38-.13Z"/>
      </g>
      <g>
        <path class="cls-1" d="m29.15,178.5v4.86c0,.69.03,1.18.08,1.49.05.31.13.54.24.7.1.16.25.29.43.39.18.1.49.21.93.33v.7h-6.03v-.7c.59-.15.99-.32,1.19-.51.2-.19.33-.45.39-.79.06-.34.09-.87.09-1.57v-12.35c0-.66-.02-1.13-.07-1.44-.05-.3-.13-.53-.24-.7-.11-.17-.25-.3-.44-.4-.18-.1-.49-.21-.93-.33v-.7h7.07c2.23,0,3.89.41,5,1.21,1.1.81,1.66,2.07,1.66,3.77,0,1.3-.36,2.41-1.08,3.33-.72.91-1.8,1.63-3.23,2.14v.11c.58.24,1.08.58,1.49,1.02.41.44.87,1.13,1.38,2.06l1.29,2.34c.37.69.69,1.21.96,1.57.27.36.54.64.81.83.28.19.64.32,1.1.4v.7h-3.96c-.36-.5-.7-1.05-1.03-1.63s-.64-1.17-.96-1.77l-1.26-2.38c-.38-.72-.69-1.26-.94-1.6-.24-.34-.47-.58-.67-.72-.2-.14-.42-.23-.66-.29-.23-.05-.58-.08-1.05-.08h-1.57Zm0-9.71v8.48h1.61c.83,0,1.5-.06,2.01-.18.51-.12.99-.34,1.43-.68.44-.33.79-.8,1.05-1.39.26-.59.39-1.33.39-2.19s-.15-1.66-.46-2.26c-.31-.6-.78-1.06-1.41-1.37-.63-.31-1.48-.47-2.54-.47-.86,0-1.55.02-2.08.06Z"/>
        <path class="cls-1" d="m41.36,187.09h-4.14l-.04-.05c-.36-.51-.71-1.06-1.04-1.64-.33-.58-.65-1.18-.96-1.77l-1.26-2.38c-.38-.72-.69-1.25-.93-1.59-.23-.33-.45-.56-.64-.69-.19-.13-.4-.22-.61-.27-.22-.05-.57-.08-1.02-.08h-1.45v4.73c0,.68.03,1.17.08,1.47.05.29.12.51.22.65.09.14.22.25.39.35.17.1.48.21.9.32l.09.03v.92h-6.28v-.92l.09-.02c.57-.15.95-.31,1.13-.48.18-.17.3-.41.35-.72.06-.33.09-.86.09-1.55v-12.35c0-.65-.02-1.12-.07-1.42-.04-.28-.12-.5-.22-.65-.1-.15-.23-.27-.39-.36-.17-.09-.47-.2-.9-.32l-.09-.03v-.92h7.19c2.24,0,3.95.42,5.07,1.24,1.13.83,1.71,2.13,1.71,3.87,0,1.33-.37,2.47-1.1,3.4-.71.9-1.76,1.61-3.14,2.13.53.24,1,.57,1.39.99.42.45.89,1.15,1.4,2.09l1.28,2.34c.37.68.69,1.2.95,1.56.26.35.52.62.78.8.26.18.61.31,1.05.38l.1.02v.93Zm-4.02-.25h3.77v-.47c-.42-.08-.78-.21-1.04-.4-.29-.2-.57-.49-.84-.86-.27-.37-.59-.9-.97-1.59l-1.28-2.34c-.5-.92-.96-1.61-1.36-2.04-.4-.43-.89-.76-1.45-.99l-.08-.03v-.29l.08-.03c1.41-.5,2.48-1.21,3.18-2.1.7-.89,1.05-1.98,1.05-3.25,0-1.65-.54-2.89-1.61-3.67-1.08-.79-2.74-1.19-4.92-1.19h-6.94v.48c.4.12.69.22.86.32.2.11.36.26.48.44.12.18.2.43.25.75.05.31.07.79.07,1.46v12.35c0,.71-.03,1.24-.09,1.59-.07.37-.21.66-.43.86-.21.19-.58.36-1.15.51v.48h5.78v-.48c-.4-.12-.69-.22-.86-.32-.2-.11-.36-.25-.47-.43-.12-.17-.2-.42-.25-.75-.05-.32-.08-.81-.08-1.51v-4.98h1.7c.48,0,.83.03,1.08.08.25.06.48.16.7.3.22.15.45.39.7.75.24.34.56.89.94,1.61l1.26,2.38c.31.59.63,1.19.96,1.77.31.55.64,1.08.98,1.56Zm-6.58-9.45h-1.74v-8.72h.12c.54-.05,1.24-.07,2.09-.07,1.08,0,1.96.16,2.6.49.65.32,1.14.8,1.46,1.42.32.62.48,1.39.48,2.31s-.14,1.63-.4,2.24c-.27.61-.64,1.1-1.09,1.44-.45.34-.95.58-1.48.7-.52.12-1.21.18-2.04.18Zm-1.49-.25h1.49c.81,0,1.48-.06,1.99-.18.5-.11.96-.33,1.38-.66.42-.32.76-.77,1.01-1.34.25-.58.38-1.3.38-2.14s-.15-1.62-.45-2.2c-.3-.57-.75-1.02-1.35-1.32-.61-.3-1.44-.46-2.49-.46-.79,0-1.44.02-1.96.05v8.24Z"/>
      </g>
      <g>
        <path class="cls-1" d="m55.5,183.4c0,.64.02,1.1.06,1.4.04.3.11.53.21.7.1.17.25.31.44.43.19.11.51.23.95.34v.7h-6.03v-.7c.59-.15.99-.32,1.19-.51.2-.19.33-.45.39-.79.06-.34.09-.87.09-1.57v-12.35c0-.66-.02-1.13-.07-1.44-.05-.3-.13-.53-.24-.7-.11-.17-.25-.3-.44-.4-.18-.1-.49-.21-.93-.33v-.7h6.03v.7c-.42.1-.72.21-.91.31-.19.1-.33.24-.44.39s-.19.39-.24.71c-.05.31-.08.8-.08,1.46v12.35Z"/>
        <path class="cls-1" d="m57.3,187.09h-6.28v-.92l.09-.02c.57-.15.95-.31,1.13-.48.18-.17.3-.41.35-.72.06-.33.09-.86.09-1.55v-12.35c0-.65-.02-1.12-.07-1.42-.04-.28-.12-.5-.22-.65-.1-.15-.23-.27-.39-.36-.17-.09-.47-.2-.9-.32l-.09-.03v-.92h6.28v.92l-.09.02c-.41.1-.7.2-.88.3-.17.09-.3.21-.4.36-.1.14-.17.36-.22.66-.05.3-.08.79-.08,1.44v12.35c0,.63.02,1.09.06,1.38.04.28.11.5.2.66.09.15.22.28.4.38.18.11.49.22.92.33l.09.02v.92Zm-6.03-.25h5.78v-.48c-.4-.11-.69-.22-.89-.33-.21-.12-.38-.28-.49-.47-.11-.19-.19-.44-.23-.75-.04-.3-.07-.78-.07-1.42v-12.35c0-.67.03-1.16.08-1.48.06-.33.14-.58.26-.76.12-.17.28-.32.48-.43.18-.1.46-.2.84-.3v-.48h-5.78v.48c.4.12.69.22.86.32.2.11.36.26.48.44.12.18.2.43.25.75.05.31.07.79.07,1.46v12.35c0,.71-.03,1.24-.09,1.59-.07.37-.21.66-.43.86-.21.19-.58.36-1.15.51v.48Z"/>
      </g>
      <g>
        <path class="cls-1" d="m70.12,182.53c.19.84.45,1.5.77,1.99.32.49.74.84,1.26,1.08s1.18.35,1.98.35c1.11,0,1.97-.29,2.56-.87.6-.58.89-1.43.89-2.54,0-.71-.12-1.31-.37-1.8-.25-.49-.65-.94-1.21-1.37-.56-.43-1.42-.93-2.57-1.5-1.11-.55-1.99-1.09-2.64-1.62s-1.13-1.1-1.45-1.72c-.32-.62-.48-1.29-.48-2.03,0-1.07.25-1.99.75-2.78s1.23-1.39,2.2-1.82c.97-.43,2.07-.64,3.32-.64.72,0,1.43.04,2.12.11.69.08,1.55.25,2.59.51v3.86h-1.41c-.22-.84-.5-1.49-.83-1.96-.33-.47-.72-.79-1.17-.98-.45-.19-1.03-.28-1.74-.28-.62,0-1.17.11-1.66.34-.49.23-.88.57-1.16,1.04s-.43,1.01-.43,1.65c0,.68.12,1.25.36,1.71.24.47.62.9,1.14,1.3.51.4,1.28.85,2.28,1.34,1.22.61,2.16,1.18,2.83,1.7.67.52,1.19,1.12,1.57,1.79.38.67.56,1.46.56,2.35,0,1-.16,1.84-.47,2.54-.31.69-.75,1.25-1.31,1.68-.56.43-1.22.75-2,.94s-1.63.29-2.55.29c-1.49,0-3.22-.25-5.17-.76v-3.91h1.43Z"/>
        <path class="cls-1" d="m73.86,187.32c-1.5,0-3.25-.26-5.2-.76l-.09-.02v-4.13h1.65l.02.1c.19.82.44,1.47.75,1.94.31.46.71.81,1.2,1.03.49.22,1.15.34,1.93.34,1.08,0,1.91-.28,2.48-.84.57-.55.85-1.38.85-2.45,0-.69-.12-1.28-.36-1.74-.24-.47-.63-.91-1.18-1.33-.55-.42-1.41-.92-2.55-1.49-1.12-.55-2.01-1.1-2.67-1.64-.66-.54-1.16-1.13-1.48-1.76-.33-.63-.49-1.34-.49-2.09,0-1.09.26-2.04.77-2.84.51-.8,1.27-1.43,2.25-1.87.98-.43,2.11-.65,3.37-.65.72,0,1.44.04,2.13.12.69.08,1.57.25,2.61.52l.09.02v4.08h-1.64l-.02-.09c-.21-.82-.49-1.46-.81-1.91-.32-.45-.69-.76-1.12-.94-.43-.18-1-.27-1.69-.27-.6,0-1.14.11-1.61.33-.47.22-.84.55-1.11.99-.27.44-.41.97-.41,1.58,0,.65.12,1.21.35,1.66.23.45.6.87,1.1,1.26.5.39,1.27.84,2.26,1.33,1.22.61,2.18,1.19,2.86,1.71.68.53,1.22,1.15,1.6,1.83.38.69.58,1.5.58,2.41,0,1.01-.16,1.88-.48,2.59-.32.71-.77,1.29-1.34,1.73-.57.44-1.26.77-2.05.96-.78.2-1.65.3-2.58.3Zm-5.04-.98c1.89.48,3.59.73,5.04.73.91,0,1.76-.1,2.52-.29.76-.19,1.41-.5,1.95-.92.54-.42.96-.97,1.27-1.64.31-.67.46-1.51.46-2.48,0-.87-.18-1.64-.55-2.29-.37-.65-.88-1.25-1.54-1.75-.66-.52-1.61-1.08-2.81-1.69-1.01-.5-1.79-.95-2.31-1.36-.53-.41-.92-.86-1.17-1.34-.25-.48-.38-1.08-.38-1.77s.15-1.24.45-1.71c.3-.48.71-.84,1.22-1.08.5-.24,1.08-.35,1.72-.35.73,0,1.33.1,1.79.29.47.19.88.54,1.22,1.02.33.46.6,1.1.82,1.9h1.19v-3.63c-.99-.25-1.82-.41-2.48-.49-.68-.08-1.39-.11-2.11-.11-1.22,0-2.32.21-3.27.63-.94.42-1.66,1.01-2.14,1.77s-.73,1.67-.73,2.71c0,.71.16,1.37.46,1.97.31.6.79,1.17,1.42,1.68.64.52,1.52,1.06,2.62,1.6,1.15.57,2.03,1.08,2.59,1.51.57.44.99.91,1.25,1.41.26.5.38,1.12.38,1.86,0,1.14-.31,2.03-.93,2.63-.62.6-1.51.91-2.65.91-.82,0-1.51-.12-2.04-.36-.53-.24-.97-.62-1.31-1.12-.32-.48-.58-1.12-.77-1.93h-1.2v3.69Z"/>
      </g>
      <g>
        <path class="cls-1" d="m90.37,167.48h15.45v4.97h-1.4c-.21-.82-.42-1.47-.62-1.94-.21-.48-.42-.84-.65-1.08-.23-.25-.47-.42-.74-.53-.26-.1-.65-.16-1.18-.16h-1.81v14.62c0,.56.03,1.01.09,1.34.06.33.16.6.29.79.13.2.3.35.52.46.22.11.56.22,1.03.32v.7h-6.53v-.7c.29-.07.54-.14.76-.21s.4-.17.54-.28c.14-.11.25-.25.34-.42.09-.17.16-.41.21-.7.05-.29.08-.73.08-1.3v-14.62h-1.8c-.45,0-.82.04-1.11.13-.29.08-.56.26-.81.54s-.47.66-.68,1.16c-.2.5-.4,1.13-.58,1.89h-1.41v-4.97Z"/>
        <path class="cls-1" d="m101.48,187.09h-6.78v-.92l.1-.02c.28-.06.53-.14.74-.21.2-.07.37-.16.5-.26.12-.1.23-.23.31-.38.08-.16.15-.38.2-.66.05-.29.08-.71.08-1.28v-14.5h-1.67c-.43,0-.79.04-1.07.12-.27.08-.52.25-.75.5-.24.26-.46.64-.65,1.12-.2.49-.39,1.12-.57,1.87l-.02.1h-1.64v-5.22h15.7v5.22h-1.62l-.02-.09c-.21-.81-.41-1.46-.61-1.92-.2-.46-.41-.81-.63-1.05-.22-.23-.45-.4-.69-.5-.25-.1-.63-.15-1.13-.15h-1.69v14.5c0,.55.03,1,.09,1.32.06.32.15.57.27.75.12.18.27.32.47.41.21.1.54.21,1,.31l.1.02v.93Zm-6.53-.25h6.28v-.48c-.43-.1-.75-.2-.96-.31-.24-.12-.43-.29-.57-.5-.14-.21-.24-.49-.3-.84-.06-.34-.09-.8-.09-1.37v-14.75h1.94c.54,0,.94.05,1.22.17.28.11.54.3.78.56.24.26.46.63.67,1.12.2.46.4,1.09.6,1.87h1.18v-4.72h-15.2v4.72h1.19c.17-.72.36-1.33.56-1.81.21-.51.45-.91.7-1.19.26-.29.55-.48.86-.57.3-.09.68-.13,1.14-.13h1.92v14.75c0,.58-.03,1.02-.08,1.32-.06.31-.13.55-.23.74-.1.19-.23.34-.38.46-.15.12-.34.22-.57.3-.2.07-.42.13-.67.19v.48Z"/>
      </g>
      <g>
        <path class="cls-1" d="m121.04,183.4c0,.64.02,1.1.06,1.4.04.3.11.53.21.7.1.17.25.31.44.43.19.11.51.23.95.34v.7h-6.03v-.7c.59-.15.99-.32,1.19-.51.2-.19.33-.45.39-.79.06-.34.09-.87.09-1.57v-12.35c0-.66-.02-1.13-.07-1.44-.05-.3-.13-.53-.24-.7-.11-.17-.25-.3-.44-.4-.18-.1-.49-.21-.93-.33v-.7h6.03v.7c-.42.1-.72.21-.91.31-.19.1-.33.24-.44.39s-.19.39-.24.71c-.05.31-.08.8-.08,1.46v12.35Z"/>
        <path class="cls-1" d="m122.84,187.09h-6.28v-.92l.09-.02c.57-.15.95-.31,1.13-.48.18-.17.3-.41.35-.72.06-.33.09-.86.09-1.55v-12.35c0-.65-.02-1.12-.07-1.42-.04-.28-.12-.5-.22-.65-.1-.15-.23-.27-.39-.36-.17-.09-.47-.2-.9-.32l-.09-.03v-.92h6.28v.92l-.09.02c-.41.1-.7.2-.88.3-.17.09-.3.21-.4.36-.1.14-.17.36-.22.66-.05.3-.08.79-.08,1.44v12.35c0,.63.02,1.09.06,1.38.04.28.11.5.2.66.09.15.22.28.4.38.18.11.49.22.92.33l.09.02v.92Zm-6.03-.25h5.78v-.48c-.4-.11-.69-.22-.89-.33-.21-.12-.38-.28-.49-.47-.11-.19-.19-.44-.23-.75-.04-.3-.07-.78-.07-1.42v-12.35c0-.67.03-1.16.08-1.48.06-.33.14-.58.26-.76.12-.17.28-.32.48-.43.18-.1.46-.2.84-.3v-.48h-5.78v.48c.4.12.69.22.86.32.2.11.36.26.48.44.12.18.2.43.25.75.05.31.07.79.07,1.46v12.35c0,.71-.03,1.24-.09,1.59-.07.37-.21.66-.43.86-.21.19-.58.36-1.15.51v.48Z"/>
      </g>
      <g>
        <path class="cls-1" d="m144,186.97v-.7c.48-.09.83-.2,1.06-.31s.41-.27.52-.48c.11-.21.17-.48.17-.82,0-.32-.04-.67-.11-1.05-.08-.38-.19-.8-.33-1.26l-.53-1.84h-6.65l-.49,1.4c-.25.7-.41,1.24-.49,1.6-.08.36-.11.69-.11.99,0,.57.15.99.44,1.26.29.27.74.44,1.34.53v.7h-6.1v-.7c.53-.08,1-.39,1.39-.93s.78-1.29,1.15-2.29l5.96-15.81h2.26l4.86,15.92c.23.74.43,1.31.61,1.7.18.39.39.7.64.91.25.22.59.38,1.01.49v.7h-6.58Zm-5.48-7.71h5.97l-2.71-9.21-3.26,9.21Z"/>
        <path class="cls-1" d="m150.7,187.09h-6.83v-.93l.1-.02c.46-.09.81-.19,1.03-.3.21-.1.37-.24.47-.43.1-.19.16-.44.16-.76s-.04-.66-.11-1.03c-.08-.37-.19-.79-.33-1.25l-.5-1.75h-6.47l-.46,1.32c-.24.69-.41,1.23-.48,1.58-.07.35-.11.67-.11.96,0,.53.13.92.4,1.16.27.25.7.42,1.27.5l.11.02v.93h-6.35v-.93l.11-.02c.5-.08.94-.38,1.31-.88.39-.52.77-1.28,1.13-2.25l5.99-15.89h2.44l.03.09,4.86,15.92c.23.74.43,1.3.6,1.68.17.37.37.67.6.87.23.2.55.36.96.46l.1.02v.92Zm-6.58-.25h6.33v-.48c-.4-.11-.73-.27-.97-.49-.26-.23-.48-.55-.67-.96-.18-.39-.38-.97-.61-1.71l-4.83-15.83h-2.08l-5.92,15.73c-.37,1-.77,1.78-1.17,2.32-.39.52-.85.84-1.37.96v.47h5.85v-.47c-.57-.09-1-.28-1.29-.54-.32-.29-.48-.74-.48-1.35,0-.3.04-.64.12-1.01.08-.37.24-.91.49-1.62l.51-1.48h6.84l.55,1.93c.14.46.25.89.33,1.27.08.38.12.75.12,1.08,0,.36-.06.66-.19.88-.13.23-.32.41-.58.53-.23.11-.55.21-.99.3v.47Zm.53-7.46h-6.31l3.44-9.74,2.87,9.74Zm-5.96-.25h5.63l-2.56-8.68-3.07,8.68Z"/>
      </g>
      <g>
        <path class="cls-1" d="m172.23,179.24c.34.57.63,1.07.86,1.5.23.43.47.91.72,1.44h.19c-.05-.58-.09-1.74-.13-3.46-.04-1.73-.06-3.29-.06-4.68v-3c0-.66-.02-1.14-.06-1.44-.04-.3-.11-.54-.21-.7-.1-.16-.24-.29-.42-.39-.18-.1-.48-.21-.92-.33v-.7h5.14v.7c-.43.11-.73.22-.91.31-.18.09-.32.22-.43.37s-.19.38-.25.69c-.06.3-.08.8-.08,1.5v16.01h-1.79l-7.95-13.34c-.5-.83-.85-1.43-1.06-1.81-.21-.38-.41-.76-.59-1.13h-.24c.07.73.11,2.06.14,3.98.03,1.92.04,3.83.04,5.73v2.91c0,.64.02,1.1.06,1.4.04.3.11.53.21.7.1.17.25.31.44.43.2.11.51.23.95.34v.7h-5.21v-.7c.59-.15.99-.32,1.19-.51.2-.19.33-.45.39-.79.06-.34.09-.87.09-1.57v-12.35c0-.66-.02-1.13-.07-1.44-.05-.3-.13-.53-.24-.7s-.25-.3-.44-.4c-.18-.1-.49-.21-.93-.33v-.7h4.47l7.05,11.77Z"/>
        <path class="cls-1" d="m175.82,187.18h-1.98l-7.99-13.4c-.51-.85-.85-1.44-1.06-1.82-.19-.35-.38-.71-.55-1.06h-.03c.06.76.11,2.05.13,3.85.03,1.89.04,3.82.04,5.74v2.91c0,.63.02,1.09.06,1.38.04.28.11.5.2.65.09.15.22.28.4.38.18.11.49.22.92.33l.09.02v.92h-5.46v-.92l.09-.02c.57-.15.95-.31,1.13-.48.18-.17.3-.41.35-.72.06-.33.09-.86.09-1.55v-12.35c0-.64-.02-1.12-.07-1.42-.04-.28-.12-.5-.22-.65-.1-.15-.23-.27-.39-.36-.17-.09-.47-.2-.9-.32l-.09-.03v-.92h4.67l.04.06,7.05,11.77c.34.57.63,1.07.87,1.5.21.39.43.83.66,1.3-.04-.63-.08-1.73-.11-3.26-.04-1.69-.06-3.27-.06-4.68v-3c0-.64-.02-1.12-.06-1.43-.04-.29-.1-.5-.19-.65-.09-.15-.21-.26-.37-.35-.17-.09-.47-.2-.89-.32l-.09-.03v-.92h5.39v.92l-.09.03c-.42.11-.71.21-.88.3-.16.09-.29.2-.39.33-.1.14-.17.35-.23.64-.05.29-.08.79-.08,1.48v16.13Zm-1.84-.25h1.59v-15.88c0-.7.03-1.21.09-1.52.06-.33.15-.57.27-.74.12-.17.28-.3.47-.41.17-.09.45-.19.84-.3v-.48h-4.89v.48c.4.12.68.22.86.32.19.11.35.26.46.44.11.18.18.42.22.75.04.31.06.8.06,1.46v3c0,1.41.02,2.98.06,4.67.04,1.71.08,2.88.13,3.46v.14s-.39,0-.39,0l-.03-.07c-.25-.53-.49-1.01-.72-1.44-.23-.43-.52-.93-.86-1.49l-7.02-11.71h-4.27v.48c.4.12.69.22.86.32.2.11.36.26.48.44.12.18.21.43.25.75.05.31.07.8.07,1.46v12.35c0,.71-.03,1.24-.09,1.59-.07.37-.21.66-.43.86-.21.19-.58.36-1.15.51v.48h4.96v-.48c-.4-.11-.7-.22-.89-.33-.21-.12-.38-.28-.49-.47-.11-.19-.18-.43-.23-.75-.04-.3-.07-.78-.07-1.42v-2.91c0-1.92-.01-3.84-.04-5.73-.03-1.91-.08-3.24-.14-3.97v-.14s.45,0,.45,0l.03.07c.18.38.38.75.58,1.12.21.37.55.97,1.05,1.81l7.92,13.28Z"/>
      </g>
      <g>
        <path class="cls-1" d="m203.49,186.97v-.7c.59-.15.99-.32,1.19-.51s.33-.45.39-.79c.06-.34.09-.87.09-1.57v-12.35c0-.66-.02-1.13-.07-1.44-.05-.3-.13-.53-.24-.7s-.25-.3-.44-.4c-.18-.1-.49-.21-.93-.33v-.7h7.81c1.51,0,2.73.16,3.65.49.92.32,1.6.8,2.05,1.44.45.63.67,1.45.67,2.45,0,.83-.16,1.55-.48,2.16-.32.61-.74,1.11-1.25,1.51-.51.4-1.18.77-1.99,1.11v.13c1.29.39,2.28.99,2.94,1.81.67.81,1,1.78,1,2.91,0,1.29-.29,2.35-.86,3.17-.58.82-1.38,1.41-2.42,1.78-1.04.37-2.29.55-3.77.55h-7.35Zm6.84-10.75c1.45,0,2.55-.35,3.32-1.05.77-.7,1.15-1.72,1.15-3.05,0-.66-.11-1.2-.32-1.64-.21-.43-.51-.78-.89-1.04-.38-.26-.82-.44-1.33-.55-.51-.11-1.07-.16-1.67-.16-.36,0-.84,0-1.43.03-.59.02-1.03.04-1.33.06v7.4h2.5Zm-2.5,9.4c.69.07,1.47.1,2.33.1,1.25,0,2.22-.16,2.91-.47.69-.31,1.19-.78,1.5-1.39.31-.61.46-1.38.46-2.31s-.17-1.68-.51-2.29c-.34-.6-.86-1.05-1.56-1.34-.71-.29-1.68-.44-2.91-.44h-2.21v8.14Z"/>
        <path class="cls-1" d="m210.85,187.09h-7.48v-.92l.09-.02c.57-.14.95-.31,1.13-.48.18-.17.3-.41.35-.72.06-.33.09-.85.09-1.55v-12.35c0-.65-.02-1.12-.07-1.42-.04-.28-.12-.5-.22-.65-.1-.15-.23-.27-.39-.36-.17-.09-.47-.2-.9-.32l-.09-.03v-.92h7.94c1.52,0,2.76.17,3.69.49.94.33,1.65.83,2.11,1.48.46.65.69,1.5.69,2.52,0,.85-.17,1.59-.49,2.21-.32.62-.76,1.15-1.28,1.55-.49.38-1.12.74-1.88,1.07,1.24.4,2.2,1,2.85,1.8.68.83,1.03,1.84,1.03,2.99,0,1.31-.3,2.41-.89,3.24-.59.84-1.42,1.45-2.48,1.82-1.05.37-2.33.56-3.81.56Zm-7.23-.25h7.23c1.45,0,2.71-.18,3.73-.54,1.01-.36,1.8-.94,2.36-1.73.56-.79.84-1.84.84-3.1,0-1.09-.33-2.04-.97-2.83-.65-.79-1.62-1.38-2.88-1.77l-.09-.03v-.3l.08-.03c.79-.34,1.45-.71,1.96-1.1.5-.39.91-.88,1.22-1.47.31-.59.46-1.29.46-2.1,0-.97-.22-1.77-.65-2.38-.43-.61-1.1-1.08-1.99-1.39-.9-.32-2.12-.48-3.61-.48h-7.69v.48c.4.12.69.22.86.32.2.11.36.26.48.44.12.18.2.43.25.75.05.31.07.78.07,1.46v12.35c0,.72-.03,1.24-.09,1.59-.07.37-.21.66-.43.86-.21.19-.58.36-1.15.51v.48Zm6.54-1.01c-.86,0-1.64-.03-2.34-.1h-.11v-8.39h2.34c1.25,0,2.25.15,2.96.45.73.3,1.27.77,1.62,1.4.35.62.52,1.41.52,2.35s-.16,1.73-.48,2.36c-.32.64-.85,1.13-1.56,1.45-.7.32-1.7.48-2.96.48Zm-2.2-.34c.66.06,1.4.09,2.2.09,1.22,0,2.18-.15,2.85-.46.66-.3,1.15-.75,1.44-1.33.3-.59.45-1.35.45-2.25s-.17-1.65-.49-2.22c-.32-.57-.83-1-1.5-1.29-.69-.29-1.65-.43-2.87-.43h-2.09v7.9Zm2.37-9.16h-2.62v-7.64h.12c.28-.03.71-.04,1.33-.07.61-.02,1.08-.03,1.43-.03.61,0,1.18.06,1.7.17.53.11.99.3,1.38.57.39.27.71.63.93,1.08.22.45.33,1.02.33,1.69,0,1.36-.4,2.42-1.19,3.14-.79.72-1.93,1.08-3.4,1.08Zm-2.37-.25h2.37c1.41,0,2.5-.34,3.24-1.02.74-.67,1.11-1.67,1.11-2.96,0-.63-.1-1.17-.31-1.58-.2-.41-.49-.74-.84-.99-.36-.25-.8-.43-1.29-.53-.5-.11-1.06-.16-1.64-.16-.35,0-.82,0-1.42.03-.54.02-.93.03-1.21.05v7.16Z"/>
      </g>
      <g>
        <path class="cls-1" d="m238.83,186.97v-.7c.48-.09.83-.2,1.06-.31.23-.11.41-.27.52-.48s.17-.48.17-.82c0-.32-.04-.67-.11-1.05s-.19-.8-.33-1.26l-.53-1.84h-6.65l-.49,1.4c-.25.7-.41,1.24-.49,1.6-.08.36-.11.69-.11.99,0,.57.14.99.44,1.26.29.27.74.44,1.33.53v.7h-6.1v-.7c.53-.08,1-.39,1.39-.93.39-.53.78-1.29,1.15-2.29l5.96-15.81h2.26l4.86,15.92c.23.74.43,1.31.61,1.7.18.39.39.7.64.91.25.22.59.38,1.01.49v.7h-6.58Zm-5.48-7.71h5.97l-2.71-9.21-3.26,9.21Z"/>
        <path class="cls-1" d="m245.54,187.09h-6.83v-.93l.1-.02c.46-.09.81-.19,1.03-.3.21-.1.36-.24.47-.43.1-.19.16-.44.16-.76s-.04-.66-.11-1.03c-.08-.37-.19-.79-.33-1.25l-.5-1.75h-6.47l-.46,1.32c-.25.7-.41,1.23-.48,1.58-.07.35-.11.67-.11.96,0,.53.13.92.39,1.16.27.25.7.42,1.27.5l.11.02v.93h-6.35v-.93l.11-.02c.5-.08.94-.38,1.31-.88.38-.52.77-1.28,1.13-2.25l5.99-15.89h2.44l.03.09,4.86,15.92c.23.73.43,1.3.6,1.68.17.37.37.67.6.87.23.2.55.36.96.46l.1.02v.92Zm-6.58-.25h6.33v-.48c-.4-.11-.73-.27-.97-.49-.26-.23-.48-.55-.67-.96-.18-.39-.38-.97-.61-1.71l-4.83-15.83h-2.08l-5.92,15.73c-.38,1-.77,1.78-1.17,2.32-.39.52-.85.84-1.37.96v.47h5.85v-.47c-.57-.09-1-.28-1.29-.54-.32-.29-.48-.74-.48-1.35,0-.31.04-.65.12-1.01.08-.37.24-.9.49-1.62l.51-1.48h6.84l.55,1.93c.14.46.25.89.33,1.27.08.38.12.74.12,1.07,0,.36-.06.66-.19.88-.13.23-.32.4-.58.53-.23.11-.55.21-.99.3v.47Zm.53-7.46h-6.31l.06-.17,3.38-9.57,2.87,9.74Zm-5.96-.25h5.62l-2.56-8.68-3.07,8.68Z"/>
      </g>
      <g>
        <path class="cls-1" d="m256.47,182.53c.19.84.45,1.5.77,1.99.32.49.74.84,1.26,1.08.51.23,1.18.35,1.98.35,1.11,0,1.97-.29,2.56-.87.59-.58.89-1.43.89-2.54,0-.71-.12-1.31-.37-1.8-.25-.49-.65-.94-1.21-1.37s-1.42-.93-2.57-1.5c-1.11-.55-2-1.09-2.64-1.62s-1.13-1.1-1.45-1.72c-.32-.62-.48-1.29-.48-2.03,0-1.07.25-1.99.75-2.78s1.23-1.39,2.2-1.82c.97-.43,2.07-.64,3.32-.64.72,0,1.43.04,2.12.11s1.55.25,2.59.51v3.86h-1.41c-.22-.84-.5-1.49-.83-1.96-.33-.47-.72-.79-1.17-.98-.45-.19-1.03-.28-1.74-.28-.62,0-1.17.11-1.66.34s-.88.57-1.16,1.04c-.29.46-.43,1.01-.43,1.65,0,.68.12,1.25.36,1.71.24.47.62.9,1.14,1.3.51.4,1.28.85,2.29,1.34,1.22.61,2.16,1.18,2.83,1.7.67.52,1.2,1.12,1.57,1.79.38.67.56,1.46.56,2.35,0,1-.16,1.84-.47,2.54-.31.69-.75,1.25-1.31,1.68-.56.43-1.22.75-2,.94-.78.2-1.63.29-2.55.29-1.49,0-3.22-.25-5.17-.76v-3.91h1.43Z"/>
        <path class="cls-1" d="m260.21,187.32c-1.5,0-3.25-.26-5.2-.76l-.09-.02v-4.13h1.65l.02.1c.19.82.44,1.47.75,1.94.31.46.71.81,1.21,1.03.49.22,1.14.34,1.93.34,1.08,0,1.91-.28,2.48-.84.57-.55.85-1.38.85-2.45,0-.69-.12-1.28-.36-1.74s-.63-.91-1.18-1.33c-.55-.42-1.41-.92-2.55-1.49-1.12-.55-2.01-1.1-2.67-1.64-.66-.54-1.15-1.13-1.48-1.76-.33-.63-.49-1.34-.49-2.09,0-1.09.26-2.04.77-2.84.51-.8,1.27-1.43,2.25-1.87.98-.43,2.11-.65,3.37-.65.72,0,1.44.04,2.13.12.69.08,1.57.25,2.61.52l.09.02v4.08h-1.64l-.02-.09c-.21-.82-.49-1.46-.81-1.92-.32-.45-.7-.76-1.12-.94-.43-.18-1-.27-1.69-.27-.6,0-1.14.11-1.61.33-.46.22-.84.55-1.11.99-.27.44-.41.97-.41,1.58,0,.65.12,1.21.35,1.66.23.45.6.87,1.1,1.26.5.39,1.27.84,2.26,1.33,1.22.61,2.18,1.19,2.86,1.71.68.53,1.22,1.15,1.6,1.83.38.69.58,1.5.58,2.41,0,1.01-.16,1.88-.48,2.59-.32.71-.77,1.29-1.34,1.73-.57.44-1.25.77-2.05.96-.78.2-1.65.3-2.58.3Zm-5.04-.98c1.89.48,3.59.73,5.04.73.91,0,1.76-.1,2.52-.29.76-.19,1.41-.5,1.95-.92.54-.42.96-.97,1.27-1.64.3-.67.46-1.5.46-2.48,0-.87-.18-1.64-.55-2.29-.37-.65-.88-1.25-1.54-1.75-.66-.51-1.61-1.08-2.81-1.69-1.01-.5-1.79-.95-2.31-1.36-.52-.41-.92-.86-1.17-1.34-.25-.48-.38-1.08-.38-1.77s.15-1.23.45-1.71c.3-.48.71-.84,1.22-1.08.5-.24,1.08-.35,1.72-.35.73,0,1.33.1,1.79.29.47.19.88.54,1.22,1.02.33.46.6,1.1.82,1.9h1.19v-3.63c-.99-.25-1.82-.41-2.48-.49-.68-.08-1.39-.11-2.11-.11-1.22,0-2.32.21-3.27.63-.94.42-1.66,1.01-2.14,1.77-.48.76-.73,1.67-.73,2.71,0,.71.16,1.37.46,1.97.31.6.79,1.17,1.42,1.68.64.52,1.52,1.06,2.62,1.6,1.16.57,2.03,1.08,2.59,1.51.57.44.99.91,1.25,1.41.25.5.38,1.13.38,1.86,0,1.14-.31,2.03-.93,2.63-.62.6-1.51.91-2.65.91-.82,0-1.51-.12-2.04-.36-.53-.24-.97-.62-1.31-1.12-.32-.48-.58-1.12-.77-1.93h-1.2v3.69Z"/>
      </g>
      <g>
        <path class="cls-1" d="m276.73,167.48h15.45v4.97h-1.4c-.21-.82-.42-1.47-.62-1.94-.2-.48-.42-.84-.65-1.08-.23-.25-.47-.42-.74-.53s-.66-.16-1.18-.16h-1.81v14.62c0,.56.03,1.01.09,1.34.06.33.16.6.29.79.13.2.3.35.52.46.22.11.56.22,1.03.32v.7h-6.53v-.7c.29-.07.54-.14.76-.21.22-.08.4-.17.54-.28s.25-.25.34-.42c.09-.17.16-.41.21-.7.05-.29.08-.73.08-1.3v-14.62h-1.8c-.45,0-.82.04-1.11.13-.29.08-.56.26-.81.54-.25.27-.47.66-.68,1.16-.21.5-.4,1.13-.58,1.89h-1.41v-4.97Z"/>
        <path class="cls-1" d="m287.83,187.09h-6.78v-.92l.1-.02c.28-.06.53-.14.74-.21.21-.07.37-.16.5-.26.12-.1.23-.23.31-.38.08-.16.15-.38.2-.66.05-.29.08-.72.08-1.28v-14.5h-1.67c-.43,0-.79.04-1.07.12-.27.08-.52.25-.75.5-.24.26-.46.64-.66,1.12-.2.49-.39,1.12-.57,1.87l-.02.1h-1.64v-5.22h15.7v5.22h-1.62l-.02-.09c-.21-.81-.41-1.46-.62-1.92-.2-.46-.41-.81-.63-1.05-.22-.23-.45-.4-.69-.5-.25-.1-.63-.15-1.13-.15h-1.69v14.5c0,.55.03.99.09,1.32.06.32.15.57.27.75.12.18.27.32.47.41.21.1.54.21,1,.31l.1.02v.92Zm-6.53-.25h6.28v-.48c-.43-.1-.75-.2-.96-.31-.24-.12-.43-.29-.57-.5-.14-.21-.24-.49-.3-.84-.06-.34-.09-.8-.09-1.37v-14.75h1.94c.54,0,.95.06,1.22.17.28.11.54.3.78.56.24.26.46.64.67,1.12.2.46.4,1.09.6,1.87h1.18v-4.72h-15.2v4.72h1.19c.18-.72.36-1.33.56-1.81.21-.51.45-.91.7-1.19.26-.29.55-.48.86-.57.3-.09.68-.13,1.14-.13h1.92v14.75c0,.58-.03,1.02-.08,1.32-.05.3-.13.55-.23.74-.1.19-.22.34-.38.46-.15.12-.34.22-.57.3-.2.07-.42.13-.67.19v.48Z"/>
      </g>
      <g>
        <path class="cls-1" d="m307.39,183.4c0,.64.02,1.1.06,1.4.04.3.11.53.21.7.1.17.25.31.44.43.2.11.51.23.95.34v.7h-6.03v-.7c.59-.15.99-.32,1.19-.51s.33-.45.39-.79c.06-.34.09-.87.09-1.57v-12.35c0-.66-.02-1.13-.07-1.44-.05-.3-.13-.53-.24-.7s-.25-.3-.44-.4c-.18-.1-.49-.21-.93-.33v-.7h6.03v.7c-.42.1-.72.21-.91.31-.19.1-.33.24-.44.39-.11.16-.19.39-.24.71-.05.31-.08.8-.08,1.46v12.35Z"/>
        <path class="cls-1" d="m309.19,187.09h-6.28v-.92l.09-.02c.57-.14.95-.31,1.13-.48.18-.17.3-.41.35-.72.06-.33.09-.85.09-1.55v-12.35c0-.65-.02-1.12-.07-1.42-.04-.28-.12-.5-.22-.65-.1-.15-.23-.27-.39-.36-.17-.09-.47-.2-.9-.32l-.09-.03v-.92h6.28v.92l-.09.02c-.41.1-.7.2-.88.3-.17.1-.3.21-.4.36-.1.14-.17.36-.22.66-.05.31-.08.79-.08,1.44v12.35c0,.63.02,1.09.06,1.38.04.28.11.5.2.65.09.15.22.28.4.38.18.11.49.22.92.33l.09.02v.92Zm-6.03-.25h5.78v-.48c-.4-.11-.7-.22-.89-.33-.21-.12-.38-.28-.49-.47-.11-.19-.18-.43-.23-.75-.04-.3-.07-.78-.07-1.42v-12.35c0-.66.03-1.16.08-1.48.05-.34.14-.58.26-.76.12-.17.28-.31.48-.43.18-.1.46-.2.84-.3v-.48h-5.78v.48c.4.12.69.22.86.32.2.11.36.26.48.44.12.18.2.43.25.75.05.31.07.78.07,1.46v12.35c0,.72-.03,1.24-.09,1.59-.07.37-.21.66-.43.86-.21.19-.58.36-1.15.51v.48Z"/>
      </g>
      <g>
        <path class="cls-1" d="m320.7,186.97v-.7c.44-.11.75-.22.94-.33.19-.1.34-.24.44-.4s.18-.4.23-.7.07-.79.07-1.44v-12.35c0-.67-.02-1.15-.07-1.45s-.13-.53-.24-.69-.25-.29-.44-.39c-.18-.1-.5-.21-.94-.33v-.7h6.25c1.8,0,3.27.2,4.42.59,1.15.4,2.12.98,2.91,1.75.79.77,1.38,1.73,1.77,2.88.39,1.15.58,2.52.58,4.11s-.18,3.03-.55,4.25c-.37,1.22-.9,2.25-1.61,3.08-.61.72-1.36,1.32-2.24,1.79-.73.38-1.58.65-2.54.81-.96.16-2.24.24-3.83.24h-5.17Zm4.36-1.33c.38.04.94.06,1.68.06.8,0,1.51-.07,2.14-.2.63-.13,1.2-.34,1.71-.63.51-.29.98-.68,1.38-1.19.41-.51.74-1.09,1-1.76.26-.66.44-1.4.56-2.21.12-.81.18-1.69.18-2.66,0-1.93-.28-3.52-.83-4.76-.56-1.24-1.34-2.15-2.36-2.72s-2.23-.86-3.63-.86c-.65,0-1.26.02-1.84.06v16.87Z"/>
        <path class="cls-1" d="m325.86,187.09h-5.29v-.92l.09-.02c.43-.11.74-.22.91-.32.17-.09.31-.21.4-.36.09-.15.17-.37.21-.65.05-.29.07-.77.07-1.42v-12.35c0-.66-.02-1.14-.07-1.43-.04-.28-.12-.5-.22-.64-.1-.14-.23-.26-.39-.35-.17-.09-.48-.2-.92-.32l-.09-.03v-.92h6.38c1.8,0,3.3.2,4.46.6,1.16.4,2.15,1,2.95,1.78.8.78,1.41,1.76,1.8,2.93.39,1.16.59,2.55.59,4.15s-.19,3.05-.55,4.29c-.37,1.24-.92,2.29-1.63,3.12-.62.73-1.38,1.34-2.28,1.81-.74.39-1.61.66-2.58.83-.96.16-2.26.25-3.85.25Zm-5.04-.25h5.04c1.58,0,2.86-.08,3.81-.24.94-.16,1.79-.43,2.5-.8.87-.46,1.61-1.05,2.2-1.75.69-.81,1.22-1.83,1.58-3.03.36-1.21.54-2.62.54-4.21s-.19-2.94-.58-4.07c-.38-1.12-.97-2.08-1.74-2.83-.77-.75-1.73-1.33-2.86-1.72-1.13-.39-2.6-.59-4.38-.59h-6.13v.48c.41.12.7.22.88.32.2.11.36.26.48.43.12.18.2.42.25.74.05.31.07.79.07,1.47v12.35c0,.67-.02,1.15-.07,1.46-.05.33-.13.57-.25.75-.12.18-.28.33-.49.44-.18.1-.47.21-.88.31v.48Zm5.92-1.02c-.74,0-1.31-.02-1.7-.06h-.11v-17.11h.12c.58-.04,1.2-.06,1.85-.06,1.42,0,2.67.29,3.7.87,1.03.58,1.84,1.52,2.41,2.78.56,1.25.85,2.87.85,4.81,0,.96-.06,1.86-.18,2.67-.12.82-.31,1.57-.57,2.23-.26.67-.6,1.27-1.02,1.79-.42.52-.9.93-1.42,1.22-.52.29-1.11.51-1.75.64-.64.13-1.37.2-2.17.2Zm-1.56-.3c.37.03.9.05,1.56.05.78,0,1.5-.07,2.12-.2.61-.13,1.18-.34,1.68-.62.5-.28.95-.67,1.35-1.16.4-.5.73-1.08.98-1.72.25-.65.44-1.38.56-2.18.12-.8.18-1.69.18-2.64,0-1.91-.28-3.49-.82-4.71-.54-1.21-1.32-2.11-2.3-2.66-.99-.56-2.19-.84-3.57-.84-.6,0-1.18.02-1.72.05v16.63Z"/>
      </g>
      <g>
        <path class="cls-1" d="m357.03,186.97v-.7c.48-.09.83-.2,1.06-.31.23-.11.41-.27.52-.48s.17-.48.17-.82c0-.32-.04-.67-.11-1.05s-.19-.8-.33-1.26l-.53-1.84h-6.65l-.49,1.4c-.25.7-.41,1.24-.49,1.6-.08.36-.11.69-.11.99,0,.57.14.99.44,1.26.29.27.74.44,1.33.53v.7h-6.1v-.7c.53-.08,1-.39,1.39-.93.39-.53.78-1.29,1.15-2.29l5.96-15.81h2.26l4.86,15.92c.23.74.43,1.31.61,1.7.18.39.39.7.64.91.25.22.59.38,1.01.49v.7h-6.58Zm-5.48-7.71h5.97l-2.71-9.21-3.26,9.21Z"/>
        <path class="cls-1" d="m363.74,187.09h-6.83v-.93l.1-.02c.46-.09.81-.19,1.03-.3.21-.1.36-.24.47-.43.1-.19.16-.44.16-.76s-.04-.66-.11-1.03c-.08-.37-.19-.79-.33-1.25l-.5-1.75h-6.47l-.46,1.32c-.25.7-.41,1.23-.48,1.58-.07.35-.11.67-.11.96,0,.53.13.92.39,1.16.27.25.7.42,1.27.5l.11.02v.93h-6.35v-.93l.11-.02c.5-.08.94-.38,1.31-.88.38-.52.77-1.28,1.13-2.25l5.99-15.89h2.44l.03.09,4.86,15.92c.23.73.43,1.3.6,1.68.17.37.37.67.6.87.23.2.55.36.96.46l.1.02v.92Zm-6.58-.25h6.33v-.48c-.4-.11-.73-.27-.97-.49-.26-.23-.48-.55-.67-.96-.18-.39-.38-.97-.61-1.71l-4.83-15.83h-2.08l-5.92,15.73c-.38,1-.77,1.78-1.17,2.32-.39.52-.85.84-1.37.96v.47h5.85v-.47c-.57-.09-1-.28-1.29-.54-.32-.29-.48-.74-.48-1.35,0-.31.04-.65.12-1.01.08-.37.24-.9.49-1.62l.51-1.48h6.84l.55,1.93c.14.46.25.89.33,1.27.08.38.12.74.12,1.07,0,.36-.06.66-.19.88-.13.23-.32.4-.58.53-.23.11-.55.21-.99.3v.47Zm.53-7.46h-6.31l.06-.17,3.38-9.57,2.87,9.74Zm-5.96-.25h5.62l-2.56-8.68-3.07,8.68Z"/>
      </g>
      <g>
        <path class="cls-1" d="m374.67,182.53c.19.84.45,1.5.77,1.99.32.49.74.84,1.26,1.08.51.23,1.18.35,1.98.35,1.11,0,1.97-.29,2.56-.87.59-.58.89-1.43.89-2.54,0-.71-.12-1.31-.37-1.8-.25-.49-.65-.94-1.21-1.37s-1.42-.93-2.57-1.5c-1.11-.55-2-1.09-2.64-1.62s-1.13-1.1-1.45-1.72c-.32-.62-.48-1.29-.48-2.03,0-1.07.25-1.99.75-2.78s1.23-1.39,2.2-1.82c.97-.43,2.07-.64,3.32-.64.72,0,1.43.04,2.12.11s1.55.25,2.59.51v3.86h-1.41c-.22-.84-.5-1.49-.83-1.96-.33-.47-.72-.79-1.17-.98-.45-.19-1.03-.28-1.74-.28-.62,0-1.17.11-1.66.34s-.88.57-1.16,1.04c-.29.46-.43,1.01-.43,1.65,0,.68.12,1.25.36,1.71.24.47.62.9,1.14,1.3.51.4,1.28.85,2.29,1.34,1.22.61,2.16,1.18,2.83,1.7.67.52,1.2,1.12,1.57,1.79.38.67.56,1.46.56,2.35,0,1-.16,1.84-.47,2.54-.31.69-.75,1.25-1.31,1.68-.56.43-1.22.75-2,.94-.78.2-1.63.29-2.55.29-1.49,0-3.22-.25-5.17-.76v-3.91h1.43Z"/>
        <path class="cls-1" d="m378.42,187.32c-1.5,0-3.25-.26-5.2-.76l-.09-.02v-4.13h1.65l.02.1c.19.82.44,1.47.75,1.94.31.46.71.81,1.21,1.03.49.22,1.14.34,1.93.34,1.08,0,1.91-.28,2.48-.84.57-.55.85-1.38.85-2.45,0-.69-.12-1.28-.36-1.74s-.63-.91-1.18-1.33c-.55-.42-1.41-.92-2.55-1.49-1.12-.55-2.01-1.1-2.67-1.64-.66-.54-1.15-1.13-1.48-1.76-.33-.63-.49-1.34-.49-2.09,0-1.09.26-2.04.77-2.84.51-.8,1.27-1.43,2.25-1.87.98-.43,2.11-.65,3.37-.65.72,0,1.44.04,2.13.12.69.08,1.57.25,2.61.52l.09.02v4.08h-1.64l-.02-.09c-.21-.82-.49-1.46-.81-1.92-.32-.45-.7-.76-1.12-.94-.43-.18-1-.27-1.69-.27-.6,0-1.14.11-1.61.33-.46.22-.84.55-1.11.99-.27.44-.41.97-.41,1.58,0,.65.12,1.21.35,1.66.23.45.6.87,1.1,1.26.5.39,1.27.84,2.26,1.33,1.22.61,2.18,1.19,2.86,1.71.68.53,1.22,1.15,1.6,1.83.38.69.58,1.5.58,2.41,0,1.01-.16,1.88-.48,2.59-.32.71-.77,1.29-1.34,1.73-.57.44-1.25.77-2.05.96-.78.2-1.65.3-2.58.3Zm-5.04-.98c1.89.48,3.59.73,5.04.73.91,0,1.76-.1,2.52-.29.76-.19,1.41-.5,1.95-.92.54-.42.96-.97,1.27-1.64.3-.67.46-1.5.46-2.48,0-.87-.18-1.64-.55-2.29-.37-.65-.88-1.25-1.54-1.75-.66-.51-1.61-1.08-2.81-1.69-1.01-.5-1.79-.95-2.31-1.36-.52-.41-.92-.86-1.17-1.34-.25-.48-.38-1.08-.38-1.77s.15-1.23.45-1.71c.3-.48.71-.84,1.22-1.08.5-.24,1.08-.35,1.72-.35.73,0,1.33.1,1.79.29.47.19.88.54,1.22,1.02.33.46.6,1.1.82,1.9h1.19v-3.63c-.99-.25-1.82-.41-2.48-.49-.68-.08-1.39-.11-2.11-.11-1.22,0-2.32.21-3.27.63-.94.42-1.66,1.01-2.14,1.77-.48.76-.73,1.67-.73,2.71,0,.71.16,1.37.46,1.97.31.6.79,1.17,1.42,1.68.64.52,1.52,1.06,2.62,1.6,1.16.57,2.03,1.08,2.59,1.51.57.44.99.91,1.25,1.41.25.5.38,1.13.38,1.86,0,1.14-.31,2.03-.93,2.63-.62.6-1.51.91-2.65.91-.82,0-1.51-.12-2.04-.36-.53-.24-.97-.62-1.31-1.12-.32-.48-.58-1.12-.77-1.93h-1.2v3.69Z"/>
      </g>
    </g>
    <g>
      <path class="cls-1" d="m148.99,88.41h-61.35v-41.12h61.35v41.12Zm-58.35-3h55.35v-35.12h-55.35v35.12Z"/>
      <g>
        <g>
          <path class="cls-1" d="m114.06,71.19v1.6l-10.15-4.28v-1.31l10.15-4.26v1.58l-8.17,3.32,8.17,3.35Z"/>
          <path class="cls-1" d="m114.56,73.54l-11.15-4.7v-1.97l11.15-4.68v2.67l-7.35,2.99,7.35,3.01v2.68Zm-10.15-5.36l9.15,3.86v-.51l-9-3.69,9-3.66v-.49l-9.15,3.84v.64Z"/>
        </g>
        <g>
          <path class="cls-1" d="m116.38,74.93h-1.35l3.93-14.05h1.35l-3.92,14.05Z"/>
          <path class="cls-1" d="m116.76,75.43h-2.39l4.21-15.05h2.38l-4.2,15.05Zm-1.07-1h.32l3.65-13.05h-.31l-3.65,13.05Z"/>
        </g>
        <g>
          <path class="cls-1" d="m121.92,64.52v-1.58l10.15,4.26v1.31l-10.15,4.28v-1.6l8.17-3.33-8.17-3.34Z"/>
          <path class="cls-1" d="m121.42,73.54v-2.68l7.35-3-7.35-3v-2.67l11.15,4.68v1.97l-11.15,4.7Zm1-2.01v.51l9.15-3.86v-.64l-9.15-3.84v.49l9,3.68-9,3.67Z"/>
        </g>
      </g>
      <g>
        <path class="cls-1" d="m79.99,89.5h77.55c.59,0,1.07.48,1.07,1.07v1.14c0,1.12-.91,2.03-2.03,2.03h-76.59c-1.12,0-2.03-.91-2.03-2.03v-.18c0-1.12.91-2.03,2.03-2.03Z"/>
        <path class="cls-1" d="m156.58,94.23h-76.59c-1.39,0-2.53-1.13-2.53-2.53v-.18c0-1.39,1.13-2.53,2.53-2.53h77.55c.86,0,1.57.7,1.57,1.57v1.14c0,1.39-1.14,2.53-2.53,2.53Zm-76.59-4.24c-.84,0-1.53.69-1.53,1.53v.18c0,.84.69,1.53,1.53,1.53h76.59c.84,0,1.53-.69,1.53-1.53v-1.14c0-.31-.25-.57-.57-.57h-77.55Z"/>
      </g>
      <path class="cls-1" d="m307.96,65.51c9.56,4.46,12.88,10.31,11.35,19.49-1.23,7.34-7.78,12.45-17.27,12.98-5.62.32-11.28.06-16.32.06.44-3.97,1.16-7.75,1.21-11.54.15-12.77.13-25.54,0-38.31-.03-2.51-.83-5.02-1.39-8.16,7.06-.05,14.78-1.53,22.15,1.44,9.1,3.67,10.83,14.36,3.69,21.16-.95.9-2.01,1.7-3.42,2.88Zm-14.42,29.27c7.33.39,14.02.42,18.27-6.14,2.63-4.06,1.53-11.52-1.91-15.9-3.42-4.36-9.68-5.95-16.36-4.04v26.08Zm.02-30.83c6.57,1.47,12.18.07,14.48-3.95,2.42-4.23,2.11-8.64-.64-12.65-2.76-4.03-7.98-5.25-13.84-3.48v20.09Z"/>
      <path class="cls-1" d="m270.4,85.61c1.97,9.4,1.93,9.46-6.13,11.76-18.22,5.2-35.01-2.73-39.75-19.07-3.23-11.12-1.45-21.56,6.65-30.09,8.34-8.79,18.98-11.12,30.65-8.66,8.13,1.71,8.1,1.88,7.28,9.72-3.38-2.14-6.77-5.63-10.73-6.5-8.42-1.84-16.12.83-22.19,7.22-7.01,7.38-8.67,19.49-4.14,29.28,4.63,10,14.01,15.99,24.46,15.7,6.21-.17,10.68-3.05,13.92-9.36Z"/>
      <path class="cls-1" d="m193.33,69.15c0-21.38,0-42.76,0-64.15,0-.99-.18-2.06.12-2.96.26-.78,1.08-1.37,1.65-2.04.53.72,1.3,1.37,1.54,2.18.28.91.1,1.97.1,2.96,0,42.6,0,85.2,0,127.8,0,.83.18,1.72-.06,2.47-.31.96-.97,1.81-1.48,2.71-.62-.95-1.77-1.88-1.78-2.84-.15-8.29-.09-16.57-.09-24.86,0-13.76,0-27.52,0-41.27Z"/>
    </g>
  </g>
</svg>