<?xml version="1.0" encoding="UTF-8"?>
<svg id="Layer_2" data-name="Layer 2" xmlns="http://www.w3.org/2000/svg" viewBox="0 0 242.2 138.12">
  <defs>
    <style>
      .cls-1 {
        fill: white;
        stroke-width: 1px;
        stroke: gray;
      }
    </style>
  </defs>
  <g id="Layer_1-2" data-name="Layer 1">
    <g>
      <path class="cls-1" d="m71.53,88.41H10.18v-41.12h61.35v41.12Zm-58.35-3h55.35v-35.12H13.18v35.12Z"/>
      <g>
        <g>
          <path class="cls-1" d="m36.6,71.19v1.6l-10.15-4.28v-1.31l10.15-4.26v1.58l-8.17,3.32,8.17,3.35Z"/>
          <path class="cls-1" d="m37.1,73.54l-11.15-4.7v-1.97l11.15-4.68v2.67l-7.35,2.99,7.35,3.01v2.68Zm-10.15-5.36l9.15,3.86v-.51l-9-3.69,9-3.66v-.49l-9.15,3.84v.64Z"/>
        </g>
        <g>
          <path class="cls-1" d="m38.92,74.93h-1.35l3.93-14.05h1.35l-3.92,14.05Z"/>
          <path class="cls-1" d="m39.3,75.43h-2.39l4.21-15.05h2.38l-4.2,15.05Zm-1.07-1h.32l3.65-13.05h-.31l-3.65,13.05Z"/>
        </g>
        <g>
          <path class="cls-1" d="m44.46,64.52v-1.58l10.15,4.26v1.31l-10.15,4.28v-1.6l8.17-3.33-8.17-3.34Z"/>
          <path class="cls-1" d="m43.96,73.54v-2.68l7.35-3-7.35-3v-2.67l11.15,4.68v1.97l-11.15,4.7Zm1-2.01v.51l9.15-3.86v-.64l-9.15-3.84v.49l9,3.68-9,3.67Z"/>
        </g>
      </g>
      <g>
        <path class="cls-1" d="m2.53,89.5h77.55c.59,0,1.07.48,1.07,1.07v1.14c0,1.12-.91,2.03-2.03,2.03H2.53c-1.12,0-2.03-.91-2.03-2.03v-.18c0-1.12.91-2.03,2.03-2.03Z"/>
        <path class="cls-1" d="m79.12,94.23H2.53c-1.39,0-2.53-1.13-2.53-2.53v-.18c0-1.39,1.13-2.53,2.53-2.53h77.55c.86,0,1.57.7,1.57,1.57v1.14c0,1.39-1.14,2.53-2.53,2.53ZM2.53,90c-.84,0-1.53.69-1.53,1.53v.18c0,.84.69,1.53,1.53,1.53h76.59c.84,0,1.53-.69,1.53-1.53v-1.14c0-.31-.25-.57-.57-.57H2.53Z"/>
      </g>
      <path class="cls-1" d="m230.5,65.51c9.56,4.46,12.88,10.31,11.35,19.49-1.23,7.34-7.78,12.45-17.27,12.98-5.62.32-11.28.06-16.32.06.44-3.97,1.16-7.75,1.21-11.54.15-12.77.13-25.54,0-38.31-.03-2.51-.83-5.02-1.39-8.16,7.06-.05,14.78-1.53,22.15,1.44,9.1,3.67,10.83,14.36,3.69,21.16-.95.9-2.01,1.7-3.42,2.88Zm-14.42,29.27c7.33.39,14.02.42,18.27-6.14,2.63-4.06,1.53-11.52-1.91-15.9-3.42-4.36-9.68-5.95-16.36-4.04v26.08Zm.02-30.83c6.57,1.47,12.18.07,14.48-3.95,2.42-4.23,2.11-8.64-.64-12.65-2.76-4.03-7.98-5.25-13.84-3.48v20.09Z"/>
      <path class="cls-1" d="m192.93,85.61c1.97,9.4,1.93,9.46-6.13,11.76-18.22,5.2-35.01-2.73-39.75-19.07-3.23-11.12-1.45-21.56,6.65-30.09,8.34-8.79,18.98-11.12,30.65-8.66,8.13,1.71,8.1,1.88,7.28,9.72-3.38-2.14-6.77-5.63-10.73-6.5-8.42-1.84-16.12.83-22.19,7.22-7.01,7.38-8.67,19.49-4.14,29.28,4.63,10,14.01,15.99,24.46,15.7,6.21-.17,10.68-3.05,13.92-9.36Z"/>
      <path class="cls-1" d="m115.87,69.15c0-21.38,0-42.76,0-64.15,0-.99-.18-2.06.12-2.96.26-.78,1.08-1.37,1.65-2.04.53.72,1.3,1.37,1.54,2.18.28.91.1,1.97.1,2.96,0,42.6,0,85.2,0,127.8,0,.83.18,1.72-.06,2.47-.31.96-.97,1.81-1.48,2.71-.62-.95-1.77-1.88-1.78-2.84-.15-8.29-.09-16.57-.09-24.86,0-13.76,0-27.52,0-41.27Z"/>
    </g>
  </g>
</svg>